#!OML:ASF X:\für Bonn\!DataBase\2005_08_12_Daniel\c3d\Daniel.ASF
:FULLY-SPECIFIED
:DEGREES
196
root 0.898485 9.5408 0.590784 151.056 -17.9763 -178.719
lowerback 71.2588 -5.52091 15.2157
upperback 9.85476 -3.97706 2.73647
thorax -9.37669 -5.67289 -0.376344
lowerneck 6.20485 -9.05285 -1.22032
upperneck 13.367 -14.1497 5.66783
head 3.91025 -7.20231 1.81397
rclavicle 3.18055e-015 -1.35174e-013
rhumerus 6.86614 4.32757 -60.9513
rradius 25.0744
rwrist 2.17454
rhand -13.8809 7.29667
rfingers 7.12502
rthumb 12.2439 -22.3249
lclavicle 3.18055e-015 -1.35174e-013
lhumerus -19.2714 12.6627 88.3778
lradius 31.9953
lwrist -17.4035
lhand -12.2749 -7.23704
lfingers 7.12502
lthumb 13.7921 22.2858
rfemur -41.5102 -47.205 -25.5412
rtibia 134.132
rfoot -11.7723 46.2636
rtoes -5.13785
lfemur -55.309 30.0438 3.93966
ltibia 135.162
lfoot -33.7729 -45.8732
ltoes 2.36462
197
root 0.900021 9.702 0.601491 151.586 -17.8643 -178.742
lowerback 70.7123 -5.3658 15.0048
upperback 9.90392 -3.95293 2.69455
thorax -9.38249 -5.61066 -0.3941
lowerneck 6.19453 -8.98014 -1.20227
upperneck 13.3084 -14.0423 5.71236
head 3.88822 -7.14843 1.82953
rclavicle -1.04958e-013 -3.26007e-014
rhumerus 6.75904 4.49752 -60.9882
rradius 25.2934
rwrist 1.42097
rhand -14.0315 7.53868
rfingers 7.12502
rthumb 12.0988 -22.0915
lclavicle -1.04958e-013 -3.26007e-014
lhumerus -18.8037 13.1282 88.0883
lradius 31.5646
lwrist -17.6535
lhand -12.4066 -7.27314
lfingers 7.12502
lthumb 13.6652 22.2583
rfemur -42.5778 -45.4701 -22.5132
rtibia 132.838
rfoot -11.8637 44.6562
rtoes -4.94119
lfemur -54.9843 28.2086 2.60889
ltibia 133.789
lfoot -33.5305 -44.6461
ltoes 2.29544
198
root 0.902938 9.86608 0.613299 152.163 -17.7445 -178.732
lowerback 70.1383 -5.21861 14.8015
upperback 9.93856 -3.91984 2.66886
thorax -9.40208 -5.543 -0.399322
lowerneck 6.18938 -8.90645 -1.20504
upperneck 13.2467 -13.9302 5.72915
head 3.8629 -7.09404 1.83982
rclavicle 0 3.97569e-015
rhumerus 6.651 4.70161 -61.02
rradius 25.5247
rwrist 0.831091
rhand -14.1611 7.77478
rfingers 7.12502
rthumb 11.9737 -21.8628
lclavicle 0 3.97569e-015
lhumerus -18.3469 13.6611 87.8231
lradius 31.1665
lwrist -17.9033
lhand -12.497 -7.30856
lfingers 7.12502
lthumb 13.5781 22.2287
rfemur -43.5404 -43.7174 -19.5868
rtibia 131.502
rfoot -12.0378 43.0351
rtoes -4.87192
lfemur -54.7035 26.4505 1.39557
ltibia 132.394
lfoot -33.3119 -43.5051
ltoes 2.0299
199
root 0.905483 10.0327 0.625162 152.771 -17.6326 -178.769
lowerback 69.547 -5.06381 14.5525
upperback 9.97704 -3.91015 2.6265
thorax -9.42141 -5.48239 -0.396671
lowerneck 6.18757 -8.81826 -1.24567
upperneck 13.1944 -13.8065 5.77879
head 3.84601 -7.03514 1.86724
rclavicle -3.81667e-014 1.74931e-014
rhumerus 6.54416 4.90608 -61.0856
rradius 25.7704
rwrist 0.362308
rhand -14.2805 7.96396
rfingers 7.12502
rthumb 11.8586 -21.6802
lclavicle -3.81667e-014 1.74931e-014
lhumerus -17.9045 14.1884 87.5455
lradius 30.8151
lwrist -18.1389
lhand -12.5756 -7.22099
lfingers 7.12502
lthumb 13.5023 22.3213
rfemur -44.3712 -41.9896 -16.9284
rtibia 130.145
rfoot -12.2482 41.4663
rtoes -4.72884
lfemur -54.3669 24.7572 0.217153
ltibia 130.961
lfoot -33.0707 -42.4052
ltoes 2.01431
200
root 0.908031 10.2013 0.637298 153.388 -17.5048 -178.753
lowerback 68.946 -4.92905 14.3587
upperback 9.99604 -3.86866 2.59259
thorax -9.45392 -5.40626 -0.417778
lowerneck 6.17245 -8.73676 -1.28027
upperneck 13.143 -13.6903 5.82401
head 3.8312 -6.97911 1.89129
rclavicle 6.44062e-014 -8.11041e-014
rhumerus 6.39556 4.99807 -61.1637
rradius 26.0192
rwrist 0.0880562
rhand -14.2764 8.17016
rfingers 7.12502
rthumb 11.8626 -21.4738
lclavicle 6.44062e-014 -8.11041e-014
lhumerus -17.4541 14.7162 87.3086
lradius 30.4602
lwrist -18.3913
lhand -12.6327 -7.12316
lfingers 7.12502
lthumb 13.4472 22.4228
rfemur -45.0549 -40.2686 -14.4008
rtibia 128.751
rfoot -12.4914 39.9115
rtoes -4.58182
lfemur -54.0206 23.1535 -0.815928
ltibia 129.501
lfoot -32.8742 -41.3764
ltoes 1.90204
201
root 0.911045 10.3717 0.649328 153.976 -17.3905 -178.741
lowerback 68.3456 -4.79852 14.1571
upperback 10.0399 -3.85259 2.56859
thorax -9.45431 -5.34708 -0.414663
lowerneck 6.11088 -8.64862 -1.37764
upperneck 13.1009 -13.5705 5.90217
head 3.83588 -6.92114 1.93386
rclavicle 4.37326e-014 -3.4191e-014
rhumerus 6.27353 5.15536 -61.2316
rradius 26.2646
rwrist -0.111675
rhand -14.3452 8.37141
rfingers 7.12502
rthumb 11.7963 -21.2764
lclavicle 4.37326e-014 -3.4191e-014
lhumerus -16.9553 15.2738 87.0778
lradius 30.1014
lwrist -18.6405
lhand -12.6661 -7.00874
lfingers 7.12502
lthumb 13.415 22.5393
rfemur -45.5117 -38.6033 -12.1401
rtibia 127.33
rfoot -12.8743 38.4493
rtoes -4.62622
lfemur -53.5867 21.5965 -1.77437
ltibia 128.012
lfoot -32.7929 -40.3321
ltoes 1.67672
